<svg xmlns="http://www.w3.org/2000/svg" viewBox="0 0 512 512"><defs><linearGradient id="og" x1="70" y1="400" x2="430" y2="105" gradientUnits="userSpaceOnUse"><stop stop-color="#0738C8"/><stop offset=".46" stop-color="#087CFF"/><stop offset="1" stop-color="#00D4FF"/></linearGradient><linearGradient id="depth" x1="0" y1="0" x2="1" y2="1"><stop stop-color="#082A91"/><stop offset="1" stop-color="#005BE8"/></linearGradient></defs><path fill="url(#depth)" d="M226 109c-30-24-69-38-111-30C45 91 8 157 20 231c12 73 70 119 138 110 29-4 54-17 74-37l-39-45c-13 12-28 20-46 22-34 5-62-20-68-58-6-39 14-76 49-82 22-4 42 4 57 19z"/><path fill="url(#og)" d="M129 78c61-11 108 20 137 65l25 39 25-36c27-40 66-64 115-64 26 0 49 7 68 19l-37 52c-10-6-21-9-33-9-28 0-49 14-65 39l-36 55 39 56c16 23 36 35 61 35 19 0 34-6 46-17v-29h-62v-58h126v111c-31 37-72 56-123 56-51 0-91-23-120-64l-31-44-30 43c-30 43-70 65-120 65-71 0-127-52-138-127C10 162 55 92 129 78zm12 62c-37 6-60 43-53 84 7 42 38 68 75 62 26-4 46-20 63-45l25-37-28-40c-20-28-48-30-82-24z"/></svg>