<svg xmlns="http://www.w3.org/2000/svg" viewBox="0 0 512 512" role="img" aria-label="Owerplay Gestor"><defs><linearGradient id="blue" x1="70" y1="410" x2="430" y2="90" gradientUnits="userSpaceOnUse"><stop stop-color="#0638C9"/><stop offset=".52" stop-color="#087DFF"/><stop offset="1" stop-color="#00D4FF"/></linearGradient><linearGradient id="cyan" x1="230" y1="95" x2="420" y2="360" gradientUnits="userSpaceOnUse"><stop stop-color="#18DFFF"/><stop offset=".48" stop-color="#079EFF"/><stop offset="1" stop-color="#0754D9"/></linearGradient></defs><path fill="url(#blue)" fill-rule="evenodd" d="M184 82c-91 0-156 70-156 174s65 174 156 174c47 0 86-19 113-51l-50-49c-15 18-36 29-63 29-49 0-82-42-82-103s33-103 82-103c28 0 50 12 66 32l50-49c-29-35-68-54-116-54zm0 71c-48 0-82 42-82 103s34 103 82 103c49 0 83-42 83-103s-34-103-83-103z"/><path fill="url(#cyan)" d="M356 82c-87 0-153 72-153 174 0 103 66 174 157 174 53 0 96-20 124-55V239H351v66h60v39c-14 10-31 15-50 15-50 0-84-41-84-103 0-61 34-103 82-103 29 0 51 11 70 34l53-48c-31-38-73-57-126-57z"/><path fill="#0A62E8" opacity=".38" d="M203 256c0-36 8-69 23-96 26 23 41 56 41 96 0 39-14 72-39 95-16-27-25-60-25-95z"/></svg>