<svg xmlns="http://www.w3.org/2000/svg" viewBox="0 0 1200 630"><defs><linearGradient id="bg" x1="0" y1="0" x2="1" y2="1"><stop stop-color="#020711"/><stop offset="1" stop-color="#082542"/></linearGradient><linearGradient id="bar" x1="0" y1="0" x2="0" y2="1"><stop stop-color="#22e7ff"/><stop offset=".45" stop-color="#078cff"/><stop offset="1" stop-color="#063ed9"/></linearGradient><linearGradient id="arrow" x1="0" y1="1" x2="1" y2="0"><stop stop-color="#00dff8"/><stop offset=".55" stop-color="#12a8ff"/><stop offset="1" stop-color="#bdfcff"/></linearGradient></defs><rect width="1200" height="630" fill="url(#bg)"/><g transform="translate(90 85) scale(.86)"><rect width="512" height="512" rx="104" fill="#020711"/><g fill="url(#bar)" stroke="#43edff" stroke-opacity=".65" stroke-width="3"><rect x="94" y="260" width="78" height="154" rx="18"/><rect x="190" y="185" width="82" height="229" rx="18"/><rect x="290" y="94" width="88" height="320" rx="18"/></g><path d="M70 389C151 440 282 413 373 310c27-30 47-61 61-92l-38 12 57-78 1 98-25-25c-18 39-43 76-74 109C257 438 143 464 70 414c-16-11-22-20-24-27 6 2 14 4 24 2z" fill="url(#arrow)" stroke="#bffcff" stroke-width="4"/></g><text x="590" y="270" fill="#f4f9ff" font-family="Arial,sans-serif" font-size="70" font-weight="700">Owerplay Gestor</text><text x="594" y="330" fill="#9cc7e5" font-family="Arial,sans-serif" font-size="30">Gestão inteligente para sua operação IPTV</text><rect x="594" y="380" width="330" height="52" rx="20" fill="#07325c"/><text x="620" y="414" fill="#43e1ff" font-family="Arial,sans-serif" font-size="20" font-weight="700">GESTÃO • CRESCIMENTO</text></svg>